<svg xmlns="http://www.w3.org/2000/svg" xmlns:xlink="http://www.w3.org/1999/xlink" width="2135" height="2136" overflow="hidden" xml:space="preserve"><defs><clipPath id="clip0"><rect width="2135" height="2136" x="102" y="238"/></clipPath><radialGradient id="fill1" cx="5866014" cy="5868785" r="8297756" gradientTransform="matrix(0.000360892 0 0 0.000360892 111 247)" gradientUnits="userSpaceOnUse" spreadMethod="pad"><stop offset="0" stop-color="#F2F2F2"/><stop offset=".083" stop-color="#F3F3F3"/><stop offset=".167" stop-color="#F5F5F5"/><stop offset=".25" stop-color="#F7F7F7"/><stop offset=".333" stop-color="#F8F8F8"/><stop offset=".417" stop-color="#FAFAFA"/><stop offset=".5" stop-color="#FBFBFB"/><stop offset=".583" stop-color="#FCFCFC"/><stop offset=".667" stop-color="#FDFDFD"/><stop offset=".75" stop-color="#FEFEFE"/><stop offset=".833" stop-color="#FEFEFE"/><stop offset=".917" stop-color="#FEFEFE"/><stop offset="1" stop-color="#FFF"/></radialGradient></defs><g clip-path="url(#clip0)" transform="translate(-102 -238)"><path fill="url(#fill1)" fill-rule="evenodd" stroke="#65584F" stroke-miterlimit="8" stroke-width="18.333" d="M111 1306C111 721.131 584.907 247 1169.5 247 1754.09 247 2228 721.131 2228 1306 2228 1890.87 1754.09 2365 1169.5 2365 584.907 2365 111 1890.87 111 1306Z"/><path fill="#65584F" d="M368.963 1287.94 367.916 1278.65 367.552 1268.44 367.846 1258.36 368.956 1248.44 370.716 1238.76 373.144 1229.34 376.215 1220.13 379.829 1211.31 383.98 1202.65 388.745 1194.35 393.837 1186.42 399.435 1178.7 405.437 1171.29 412.009 1163.99 425.648 1150.97 440.612 1138.96 456.558 1128.14 473.291 1118.69 490.636 1110.42 508.442 1103.52 526.49 1097.89 544.645 1093.72 564.009 1090.79 575.681 1091.43 585.689 1092.4 595.61 1093.86 605.273 1095.81 614.818 1098.18 624.124 1101.03 633.242 1104.23 642.381 1108.01 659.235 1116.3 675.399 1126.26 690.449 1137.62 704.245 1150.23 716.781 1164.02 728.012 1178.95 737.74 1194.84 745.801 1211.44 749.41 1220.39 752.425 1229.3 755.098 1238.44 757.201 1247.7 758.95 1257.07 760.147 1266.58 760.92 1276.27 761.155 1287.19 758.648 1305.46 754.971 1323.02 749.941 1340.56 743.634 1357.92 735.993 1375.05 726.984 1391.49 716.748 1407.36 704.996 1422.31 691.959 1436.05 677.785 1448.35 669.733 1454.2 661.697 1459.39 653.188 1464.23 644.312 1468.48 635.198 1472.21 625.759 1475.38 615.991 1477.99 605.86 1479.94 595.528 1481.23 584.867 1481.88 574.023 1481.81 562.469 1481 543.557 1477.64 525.477 1473.34 507.916 1467.87 490.979 1461.36 474.621 1453.7 459.039 1444.8 444.258 1434.67 430.5 1423.29 417.791 1410.65 406.305 1396.7 396.138 1381.52 387.398 1364.95 380.353 1347.55 377.25 1337.95 374.747 1328.29 372.605 1318.48 370.944 1308.23 369.717 1297.8ZM376.561 1297.14 377.754 1307.28 379.362 1317.19 381.435 1326.69 383.854 1336.03 386.819 1345.2 393.64 1362.05 402.05 1377.99 411.828 1392.59 422.882 1406.02 435.125 1418.19 448.401 1429.18 462.693 1438.97 477.789 1447.59 493.674 1455.03 510.173 1461.37 527.297 1466.71 544.955 1470.91 563.313 1474.17 574.286 1474.93 584.682 1475 594.893 1474.39 604.782 1473.15 614.452 1471.28 623.777 1468.8 632.799 1465.77 641.521 1462.2 650.001 1458.13 658.131 1453.51 665.843 1448.53 673.502 1442.96 687.202 1431.07 699.789 1417.81 711.144 1403.37 721.072 1387.98 729.828 1371.99 737.256 1355.34 743.398 1338.44 748.293 1321.37 751.869 1304.28 754.27 1286.79 754.051 1276.62 753.307 1267.28 752.154 1258.13 750.468 1249.09 748.44 1240.17 745.867 1231.36 742.961 1222.78 739.513 1214.23 731.701 1198.14 722.32 1182.82 711.479 1168.41 699.371 1155.09 686.049 1142.91 671.516 1131.95 655.907 1122.33 639.545 1114.28 630.787 1110.65 621.979 1107.56 612.983 1104.81 603.765 1102.52 594.427 1100.64 584.855 1099.22 575.162 1098.29 564.339 1097.69 545.93 1100.48 528.285 1104.53 510.711 1110.01 493.361 1116.74 476.465 1124.79 460.185 1133.99 444.699 1144.49 430.182 1156.15 416.943 1168.79 410.666 1175.75 404.894 1182.88 399.516 1190.3 394.622 1197.92 390.07 1205.85 386.115 1214.11 382.664 1222.53 379.742 1231.29 377.436 1240.24 375.763 1249.44 374.71 1258.85 374.43 1268.42 374.778 1278.14 375.809 1287.29ZM382.654 1286.65 381.639 1277.63 381.309 1268.4 381.574 1259.33 382.569 1250.44 384.155 1241.71 386.34 1233.24 389.113 1224.92 392.401 1216.9 396.16 1209.05 400.498 1201.49 405.196 1194.18 410.353 1187.07 415.896 1180.22 421.878 1173.58 434.716 1161.32 448.787 1150.03 463.811 1139.84 479.639 1130.9 496.087 1123.06 512.98 1116.51 530.08 1111.17 547.215 1107.24 564.67 1104.6 574.644 1105.14 584.021 1106.05 593.245 1107.41 602.258 1109.23 611.148 1111.43 619.833 1114.09 628.331 1117.08 636.71 1120.55 652.578 1128.35 667.633 1137.63 681.65 1148.21 694.498 1159.95 706.177 1172.8 716.629 1186.69 725.663 1201.45 733.225 1217.02 736.512 1225.17 739.308 1233.43 741.783 1241.9 743.734 1250.48 745.358 1259.19 746.466 1267.98 747.182 1276.96 747.385 1286.4 745.091 1303.11 741.615 1319.72 736.855 1336.31 730.878 1352.77 723.664 1368.93 715.161 1384.46 705.541 1399.37 694.582 1413.31 682.445 1426.1 669.22 1437.57 661.953 1442.86 654.565 1447.63 646.813 1452.03 638.729 1455.91 630.399 1459.32 621.795 1462.21 612.914 1464.58 603.703 1466.36 594.259 1467.54 584.497 1468.13 574.549 1468.06 564.156 1467.33 546.352 1464.17 529.117 1460.07 512.43 1454.87 496.368 1448.7 480.957 1441.48 466.346 1433.14 452.544 1423.68 439.75 1413.1 427.972 1401.38 417.352 1388.48 407.962 1374.46 399.882 1359.15 393.284 1342.85 390.458 1334.11 388.124 1325.1 386.118 1315.91 384.565 1306.33 383.406 1296.48ZM397.094 1295.15 398.185 1304.42 399.632 1313.34 401.501 1321.9 403.667 1330.27 406.216 1338.15 412.367 1353.35 419.787 1367.41 428.398 1380.27 438.153 1392.12 449 1402.9 460.831 1412.69 473.654 1421.48 487.293 1429.27 501.757 1436.05 516.945 1441.88 532.758 1446.8 549.148 1450.7 565.843 1453.67 575.076 1454.31 584.128 1454.37 592.991 1453.84 601.546 1452.77 609.836 1451.17 617.83 1449.04 625.6 1446.43 633.146 1443.34 640.437 1439.84 647.434 1435.87 654.172 1431.52 660.655 1426.8 672.93 1416.15 684.168 1404.31 694.334 1391.38 703.339 1377.42 711.336 1362.82 718.122 1347.61 723.769 1332.06 728.26 1316.41 731.534 1300.76 733.615 1285.6 733.443 1277.66 732.784 1269.39 731.767 1261.31 730.266 1253.27 728.467 1245.35 726.192 1237.57 723.613 1229.95 720.65 1222.6 713.587 1208.05 705.246 1194.43 695.573 1181.58 684.752 1169.67 672.85 1158.79 659.867 1149 645.922 1140.4 631.04 1133.08 623.419 1129.92 615.542 1127.16 607.477 1124.69 599.242 1122.65 590.88 1120.96 582.354 1119.7 573.606 1118.86 565.33 1118.4 549.785 1120.76 533.67 1124.45 517.519 1129.49 501.538 1135.69 485.986 1143.1 471.064 1151.53 456.963 1161.1 443.784 1171.68 431.747 1183.17 426.354 1189.15 421.271 1195.43 416.554 1201.94 412.252 1208.63 408.34 1215.45 404.974 1222.48 402.012 1229.71 399.535 1237.13 397.594 1244.66 396.181 1252.44 395.301 1260.3 395.066 1268.35 395.361 1276.62 396.346 1285.35ZM403.191 1284.71 402.222 1276.11 401.945 1268.33 402.165 1260.78 402.987 1253.43 404.314 1246.14 406.133 1239.08 408.461 1232.1 411.26 1225.27 414.43 1218.65 418.128 1212.21 422.234 1205.82 426.73 1199.62 431.583 1193.62 436.682 1187.96 448.318 1176.85 461.051 1166.63 474.69 1157.38 489.16 1149.21 504.264 1142.01 519.789 1135.99 535.465 1131.1 551.07 1127.52 565.661 1125.31 573.088 1125.71 581.52 1126.53 589.697 1127.74 597.735 1129.36 605.642 1131.32 613.396 1133.69 620.963 1136.35 628.205 1139.35 642.593 1146.42 655.984 1154.68 668.451 1164.09 679.878 1174.53 690.271 1185.96 699.555 1198.3 707.548 1211.36 714.362 1225.39 717.164 1232.34 719.633 1239.64 721.81 1247.08 723.532 1254.66 724.971 1262.37 725.943 1270.09 726.574 1278.01 726.73 1285.21 724.756 1299.59 721.582 1314.75 717.226 1329.94 711.744 1345.03 705.171 1359.76 697.428 1373.9 688.731 1387.38 678.961 1399.81 668.173 1411.18 656.372 1421.41 650.282 1425.84 643.869 1429.99 637.249 1433.75 630.354 1437.05 623.201 1439.98 615.848 1442.45 608.298 1444.46 600.468 1445.97 592.356 1446.99 583.943 1447.5 575.339 1447.44 566.687 1446.83 550.545 1443.97 534.578 1440.17 519.202 1435.38 504.451 1429.72 490.461 1423.16 477.307 1415.65 464.974 1407.2 453.625 1397.81 443.243 1387.48 433.922 1376.16 425.7 1363.88 418.61 1350.45 412.681 1335.8 410.271 1328.35 408.19 1320.31 406.388 1312.06 404.996 1303.47 403.939 1294.48ZM410.783 1293.82 411.806 1302.52 413.145 1310.77 414.878 1318.71 416.875 1326.42 419.147 1333.45 424.852 1347.55 431.612 1360.36 439.445 1372.05 448.334 1382.85 458.25 1392.71 469.117 1401.7 480.961 1409.82 493.628 1417.05 507.146 1423.39 521.459 1428.88 536.398 1433.54 551.943 1437.23 567.53 1440 575.602 1440.57 583.758 1440.62 591.722 1440.14 599.389 1439.18 606.759 1437.76 613.866 1435.86 620.801 1433.54 627.563 1430.77 634.062 1427.65 640.303 1424.11 646.392 1420.17 652.09 1416.03 663.416 1406.2 673.754 1395.31 683.127 1383.39 691.516 1370.38 699.007 1356.7 705.365 1342.45 710.683 1327.82 714.904 1313.1 717.977 1298.42 719.845 1284.81 719.705 1278.36 719.103 1270.8 718.175 1263.43 716.799 1256.05 715.152 1248.81 713.075 1241.7 710.715 1234.73 708.074 1228.18 701.51 1214.66 693.863 1202.17 684.969 1190.35 675.005 1179.39 664.051 1169.38 652.101 1160.36 639.265 1152.45 625.369 1145.61 618.508 1142.77 611.251 1140.22 603.807 1137.95 596.227 1136.07 588.515 1134.51 580.686 1133.35 572.569 1132.57 565.991 1132.21 552.355 1134.28 537.26 1137.74 522.058 1142.48 506.989 1148.33 492.334 1155.31 478.316 1163.23 465.138 1172.17 452.852 1182.03 441.616 1192.76 436.813 1198.09 432.189 1203.8 427.913 1209.7 424.005 1215.78 420.52 1221.85 417.546 1228.06 414.91 1234.49 412.731 1241.03 411.034 1247.61 409.793 1254.43 409.029 1261.26 408.823 1268.31 409.084 1275.6 410.037 1284.06Z"/><path fill="#65584F" d="M1544.9 1408.03 1544.68 1397.24 1544.96 1387.1 1545.8 1377.05 1547.15 1367.23 1549.06 1357.51 1551.45 1348.16 1554.27 1339.01 1557.58 1330.05 1561.35 1321.23 1565.63 1312.75 1570.27 1304.6 1575.48 1296.42 1586.62 1281.65 1599.36 1268 1613.46 1255.59 1628.8 1244.59 1645.21 1235.1 1662.67 1227.09 1680.77 1220.79 1690.44 1218.16 1700.17 1216 1709.93 1214.35 1719.81 1213.05 1730 1212.22 1740.5 1211.86 1751 1212.22 1761.13 1213.04 1771.03 1214.29 1780.9 1216.04 1790.45 1218.27 1799.83 1220.91 1809 1223.99 1818.15 1227.59 1835.02 1235.75 1851.06 1245.55 1865.9 1256.76 1879.55 1269.29 1891.95 1283.08 1902.96 1298.02 1912.48 1314.05 1920.49 1330.98 1926.89 1348.53 1929.53 1357.88 1931.75 1367.25 1933.5 1376.74 1934.81 1386.35 1935.71 1396.19 1936.16 1406.94 1935.2 1418.22 1933.9 1428.56 1932.13 1438.71 1929.98 1448.93 1924.56 1468.15 1917.65 1486.76 1909.24 1504.55 1899.35 1521.28 1888.23 1536.78 1875.72 1551.04 1862.3 1563.64 1854.77 1569.7 1847.11 1575.14 1839.24 1580.1 1831.07 1584.69 1822.67 1588.71 1814.13 1592.27 1805.21 1595.39 1795.98 1597.93 1786.73 1599.87 1777.28 1601.31 1767.57 1602.11 1757.79 1602.32 1747.92 1601.96 1738.5 1601.03 1718.04 1599.08 1697.91 1595.53 1678.86 1590.44 1660.92 1583.9 1644.13 1575.83 1628.56 1566.31 1614.24 1555.47 1601.24 1543.25 1589.59 1529.84 1579.24 1515.34 1570.29 1499.75 1562.59 1483.15 1556.32 1465.66 1551.29 1447.38 1547.51 1428.33ZM1554.3 1427.22 1557.99 1445.79 1562.88 1463.59 1568.95 1480.54 1576.4 1496.58 1585.04 1511.62 1595 1525.58 1606.2 1538.48 1618.68 1550.21 1632.43 1560.63 1647.42 1569.78 1663.59 1577.56 1680.93 1583.88 1699.4 1588.81 1718.96 1592.26 1739.17 1594.19 1748.38 1595.1 1757.84 1595.44 1767.21 1595.24 1776.48 1594.48 1785.51 1593.1 1794.36 1591.25 1803.16 1588.82 1811.67 1585.85 1819.87 1582.43 1827.9 1578.58 1835.72 1574.19 1843.28 1569.43 1850.61 1564.22 1857.78 1558.44 1870.77 1546.26 1882.84 1532.5 1893.59 1517.52 1903.16 1501.32 1911.31 1484.09 1918.02 1466.01 1923.3 1447.29 1925.38 1437.41 1927.1 1427.54 1928.36 1417.5 1929.27 1406.79 1928.85 1396.65 1927.98 1387.13 1926.71 1377.82 1925.02 1368.67 1922.87 1359.61 1920.34 1350.64 1914.14 1333.63 1906.4 1317.28 1897.22 1301.83 1886.61 1287.43 1874.66 1274.13 1861.5 1262.05 1847.18 1251.24 1831.72 1241.79 1815.39 1233.9 1806.65 1230.45 1797.8 1227.48 1788.74 1224.93 1779.52 1222.78 1770 1221.09 1760.42 1219.88 1750.6 1219.08 1740.5 1218.74 1730.4 1219.08 1720.54 1219.89 1710.95 1221.15 1701.49 1222.75 1692.08 1224.83 1682.8 1227.36 1665.24 1233.48 1648.37 1241.21 1632.53 1250.37 1617.74 1260.98 1604.16 1272.94 1591.89 1286.08 1581.13 1300.34 1576.16 1308.15 1571.69 1316 1567.59 1324.13 1563.97 1332.6 1560.78 1341.21 1558.07 1350.02 1555.77 1359.03 1553.93 1368.36 1552.64 1377.81 1551.83 1387.48 1551.56 1397.26 1551.77 1407.52ZM1558.63 1407.01 1558.44 1397.29 1558.7 1387.87 1559.48 1378.56 1560.72 1369.49 1562.48 1360.55 1564.69 1351.89 1567.3 1343.42 1570.36 1335.14 1573.83 1327.04 1577.75 1319.25 1582.05 1311.7 1586.79 1304.26 1597.17 1290.51 1608.95 1277.88 1622.03 1266.36 1636.27 1256.15 1651.53 1247.32 1667.81 1239.86 1684.84 1233.93 1693.73 1231.51 1702.81 1229.5 1711.98 1227.95 1721.27 1226.72 1730.79 1225.95 1740.5 1225.62 1750.21 1225.95 1759.71 1226.72 1768.97 1227.89 1778.13 1229.51 1787.03 1231.59 1795.78 1234.05 1804.29 1236.91 1812.63 1240.2 1828.42 1247.83 1843.31 1256.93 1857.09 1267.34 1869.77 1278.97 1881.27 1291.78 1891.49 1305.63 1900.33 1320.52 1907.79 1336.28 1913.8 1352.76 1916.22 1361.33 1918.29 1370.08 1919.92 1378.91 1921.14 1387.91 1921.99 1397.1 1922.39 1406.65 1921.53 1416.78 1920.3 1426.52 1918.63 1436.11 1916.62 1445.64 1911.48 1463.88 1904.97 1481.42 1897.08 1498.1 1887.83 1513.76 1877.45 1528.22 1865.82 1541.47 1853.27 1553.25 1846.46 1558.73 1839.45 1563.71 1832.21 1568.28 1824.73 1572.48 1817.06 1576.15 1809.21 1579.42 1801.11 1582.25 1792.74 1584.56 1784.29 1586.33 1775.68 1587.64 1766.86 1588.37 1757.89 1588.57 1748.85 1588.24 1739.83 1587.34 1719.89 1585.44 1700.89 1582.09 1682.99 1577.31 1666.26 1571.22 1650.71 1563.73 1636.31 1554.94 1623.12 1544.95 1611.16 1533.71 1600.41 1521.32 1590.83 1507.9 1582.51 1493.41 1575.32 1477.93 1569.44 1461.51 1564.68 1444.21 1561.09 1426.11ZM1574.66 1423.89 1578.07 1441.04 1582.56 1457.36 1588.05 1472.7 1594.74 1487.08 1602.42 1500.47 1611.22 1512.8 1621.09 1524.17 1632 1534.43 1644.06 1543.56 1657.29 1551.64 1671.61 1558.53 1687.13 1564.19 1703.86 1568.66 1721.74 1571.81 1741.17 1573.66 1749.78 1574.51 1757.99 1574.81 1766.14 1574.63 1774.07 1573.98 1781.84 1572.79 1789.51 1571.19 1797.01 1569.12 1804.29 1566.58 1811.44 1563.6 1818.39 1560.27 1825.17 1556.47 1831.8 1552.29 1838.16 1547.77 1844.23 1542.87 1855.93 1531.9 1866.67 1519.66 1876.3 1506.24 1884.92 1491.65 1892.28 1476.08 1898.4 1459.62 1903.26 1442.36 1905.12 1433.51 1906.7 1424.48 1907.85 1415.34 1908.61 1406.35 1908.26 1398.02 1907.48 1389.47 1906.33 1381.09 1904.83 1372.92 1902.91 1364.79 1900.7 1356.99 1895.09 1341.59 1888.17 1326.98 1880.01 1313.24 1870.6 1300.47 1859.98 1288.65 1848.28 1277.91 1835.56 1268.32 1821.83 1259.92 1807.12 1252.8 1799.58 1249.84 1791.72 1247.2 1783.6 1244.91 1775.37 1242.99 1766.91 1241.49 1758.29 1240.4 1749.42 1239.68 1740.5 1239.38 1731.58 1239.68 1722.73 1240.4 1714.02 1241.55 1705.44 1243 1697.02 1244.86 1688.91 1247.07 1672.94 1252.64 1657.85 1259.55 1643.73 1267.72 1630.6 1277.14 1618.55 1287.75 1607.71 1299.37 1598.09 1312.11 1593.83 1318.8 1589.87 1325.75 1586.3 1332.84 1583.14 1340.23 1580.33 1347.83 1577.93 1355.61 1575.9 1363.58 1574.28 1371.76 1573.15 1380.07 1572.43 1388.63 1572.19 1397.34 1572.37 1405.99ZM1579.23 1405.48 1579.07 1397.36 1579.3 1389.01 1579.98 1380.82 1581.07 1372.89 1582.6 1365.1 1584.55 1357.48 1586.84 1350.04 1589.53 1342.78 1592.54 1335.74 1595.93 1329 1599.72 1322.35 1603.74 1316.04 1612.98 1303.79 1623.34 1292.69 1634.88 1282.52 1647.47 1273.5 1661.01 1265.67 1675.51 1259.02 1690.95 1253.64 1698.67 1251.54 1706.76 1249.75 1715.05 1248.35 1723.46 1247.24 1731.98 1246.54 1740.5 1246.26 1749.02 1246.54 1757.58 1247.24 1765.88 1248.29 1773.98 1249.72 1781.88 1251.57 1789.7 1253.77 1797.23 1256.3 1804.36 1259.1 1818.53 1265.96 1831.69 1274.01 1843.88 1283.2 1855.09 1293.49 1865.26 1304.82 1874.28 1317.05 1882.1 1330.22 1888.74 1344.25 1894.16 1359.1 1896.25 1366.52 1898.1 1374.33 1899.54 1382.18 1900.65 1390.25 1901.4 1398.48 1901.73 1406.2 1901.01 1414.62 1899.9 1423.46 1898.37 1432.21 1896.58 1440.71 1891.85 1457.49 1885.94 1473.41 1878.84 1488.42 1870.53 1502.48 1861.28 1515.37 1850.98 1527.12 1839.72 1537.68 1834.01 1542.28 1827.97 1546.57 1821.65 1550.56 1815.22 1554.17 1808.63 1557.32 1801.83 1560.15 1794.96 1562.55 1787.89 1564.5 1780.61 1566.03 1773.27 1567.15 1765.79 1567.76 1758.04 1567.93 1750.24 1567.65 1741.83 1566.81 1722.66 1564.99 1705.35 1561.94 1689.2 1557.62 1674.28 1552.19 1660.58 1545.6 1647.94 1537.87 1636.45 1529.17 1626.05 1519.4 1616.62 1508.54 1608.21 1496.75 1600.85 1483.92 1594.42 1470.09 1589.12 1455.29 1584.76 1439.46 1581.45 1422.78ZM1588.24 1421.67 1591.46 1437.87 1595.68 1453.22 1600.79 1467.47 1606.96 1480.75 1614.01 1493.04 1622.03 1504.28 1631.01 1514.62 1640.89 1523.91 1651.82 1532.19 1663.87 1539.55 1676.96 1545.85 1691.27 1551.06 1706.84 1555.22 1723.58 1558.17 1742.5 1559.97 1750.71 1560.79 1758.09 1561.05 1765.43 1560.89 1772.47 1560.32 1779.39 1559.26 1786.27 1557.82 1792.91 1555.99 1799.37 1553.73 1805.83 1551.04 1812.05 1548.06 1818.13 1544.65 1824.14 1540.86 1829.86 1536.8 1835.2 1532.49 1846.03 1522.33 1855.89 1511.09 1864.77 1498.72 1872.76 1485.2 1879.6 1470.74 1885.31 1455.35 1889.9 1439.07 1891.62 1430.91 1893.1 1422.44 1894.17 1413.9 1894.84 1406.06 1894.54 1398.94 1893.82 1391.03 1892.75 1383.26 1891.37 1375.75 1889.59 1368.25 1887.61 1361.22 1882.39 1346.9 1876.02 1333.45 1868.54 1320.85 1859.93 1309.17 1850.2 1298.34 1839.47 1288.49 1827.82 1279.7 1815.23 1272 1801.6 1265.41 1794.87 1262.76 1787.67 1260.34 1780.17 1258.23 1772.6 1256.46 1764.85 1255.09 1756.87 1254.08 1748.63 1253.41 1740.5 1253.14 1732.37 1253.41 1724.19 1254.08 1716.07 1255.15 1708.08 1256.5 1700.31 1258.22 1692.98 1260.21 1678.08 1265.41 1664.17 1271.78 1651.2 1279.29 1639.17 1287.91 1628.14 1297.62 1618.25 1308.22 1609.39 1319.96 1605.61 1325.9 1602 1332.25 1598.77 1338.64 1595.92 1345.32 1593.36 1352.24 1591.17 1359.34 1589.31 1366.61 1587.85 1374.02 1586.82 1381.57 1586.16 1389.4 1585.94 1397.39 1586.1 1404.97Z"/><path fill="none" fill-rule="evenodd" stroke="#65584F" stroke-miterlimit="8" stroke-width="13.75" d="M398 728.982C432.427 724.653 452.508 710.409 546.955 702.133 636.948 697.687 776.214 692.649 915.904 697.658 1026.88 723.218 1159.37 733.259 1289.44 758.068 1412.38 784.901 1587.63 844.263 1695.05 887.836 1819.21 936.524 1923.3 986.704 1988.38 1037.74 2054.81 1076.62 2094.35 1111.73 2119 1125"/><path fill="none" fill-rule="evenodd" stroke="#65584F" stroke-miterlimit="8" stroke-width="13.75" d="M1790 905C1793.49 874.581 1819.66 845.091 1819.08 821.379L1819.08 821.379C1828.57 783.298 1843.04 778.578 1856.72 744.448 1868.14 718.938 1873.14 700.12 1889.23 679.224 1901.4 665.07 1914.11 634.906 1932 614"/><path fill="none" fill-rule="evenodd" stroke="#65584F" stroke-miterlimit="8" stroke-width="13.75" d="M1027 682C1040.88 659.461 1055.96 616.423 1073.53 593.837 1092.56 570.92 1105.37 548.128 1123.51 526.666 1145.71 503.467 1165.37 485.512 1188.14 452.777 1214.55 429.171 1244.02 389.725 1273.45 373.011 1299.02 348.368 1333.78 329.114 1349.29 320.113 1367.3 307.748 1371.52 308.142 1376 305"/><path fill="none" fill-rule="evenodd" stroke="#65584F" stroke-miterlimit="8" stroke-width="13.75" d="M147 1376C167.949 1369.93 184.228 1357.72 220.376 1353.5 244.299 1345.98 300.929 1342.58 349 1336"/><path fill="none" fill-rule="evenodd" stroke="#65584F" stroke-miterlimit="8" stroke-width="13.75" d="M768 1322C806.409 1317.21 846.468 1330.81 900.578 1323.25 954.688 1315.69 971.162 1333.06 1038.57 1324.55L1038.57 1324.55C1108.58 1319.05 1129.39 1345.92 1185.45 1333.89 1225.14 1336.85 1223.12 1333.54 1278.21 1341.53 1332.71 1352.89 1408.77 1350.05 1517 1384"/><path fill="none" fill-rule="evenodd" stroke="#65584F" stroke-miterlimit="8" stroke-width="13.75" d="M1947 1457C1975.21 1463.45 2005.57 1471.71 2028.49 1478 2051.81 1483.61 2064.14 1488.94 2080.82 1495.64 2096.95 1503.37 2114.67 1515.62 2134 1520"/><path fill="none" fill-rule="evenodd" stroke="#65584F" stroke-miterlimit="8" stroke-width="13.75" d="M561 2110C618.358 2078.38 656.516 2082.53 728.261 2049.55 784.203 2023.86 881.989 2016.65 959.677 1991.34 1039.91 1982.85 1082.23 1958.07 1159.02 1951.03 1231.46 1933.8 1372.39 1899.4 1456.88 1917.45 1556.84 1896.93 1653.17 1906.31 1715.79 1904.02 1792.79 1905.93 1874.32 1913.66 1922 1919.69"/></g></svg>